<?xml version="1.0" standalone="no"?>
<!DOCTYPE svg PUBLIC "-//W3C//DTD SVG 20010904//EN"
 "http://www.w3.org/TR/2001/REC-SVG-20010904/DTD/svg10.dtd">
<svg version="1.0" xmlns="http://www.w3.org/2000/svg"
 width="426.000000pt" height="533.000000pt" viewBox="0 0 426.000000 533.000000"
 preserveAspectRatio="xMidYMid meet">

<g transform="translate(0.000000,533.000000) scale(0.100000,-0.100000)"
fill="#000000" stroke="none">
<path d="M1815 5281 c-7 -12 1 -17 44 -26 23 -5 31 -4 27 4 -4 6 -17 11 -29
11 -18 0 -19 2 -7 10 12 8 11 10 -7 10 -12 0 -24 -4 -28 -9z"/>
<path d="M1740 5261 c6 -12 8 -26 4 -32 -4 -7 1 -10 12 -7 29 5 26 52 -4 56
-21 3 -22 1 -12 -17z"/>
<path d="M2020 5270 c0 -5 5 -10 10 -10 6 0 10 5 10 10 0 6 -4 10 -10 10 -5 0
-10 -4 -10 -10z"/>
<path d="M1642 5259 c-12 -5 -22 -15 -22 -23 0 -8 -5 -18 -12 -22 -7 -5 -9 0
-6 14 6 21 5 21 -66 -4 -187 -66 -418 -201 -591 -346 -587 -491 -945 -1329
-945 -2213 0 -613 177 -1227 488 -1695 83 -125 218 -296 273 -347 l24 -21 215
154 c242 173 389 256 414 235 13 -11 16 -11 16 3 0 22 27 31 45 16 9 -7 15 -8
15 -2 0 5 7 12 14 15 10 4 13 1 9 -9 -3 -7 0 -14 5 -14 6 0 13 -8 17 -17 3
-10 14 -29 25 -41 l20 -24 35 22 c43 27 88 20 112 -17 14 -21 22 -24 51 -19
22 3 46 -1 64 -10 17 -9 32 -13 35 -10 3 3 -5 10 -18 15 -24 9 -23 9 13 25 49
21 70 20 114 -3 20 -11 43 -17 53 -13 12 5 9 8 -11 10 -31 4 -35 14 -13 32 22
18 45 5 46 -27 1 -30 3 -27 24 35 10 29 25 11 25 -30 0 -15 5 -30 10 -33 6 -3
10 3 10 14 0 17 6 21 31 21 17 0 28 -4 24 -10 -3 -5 -14 -10 -23 -10 -15 0
-15 -2 -2 -10 8 -5 37 -10 63 -10 41 0 50 3 54 20 3 11 11 20 18 20 7 0 15 7
19 15 3 8 16 15 28 15 23 -1 23 -1 3 -16 -17 -13 -18 -16 -5 -24 25 -17 59
-23 77 -14 14 6 11 9 -14 12 -44 4 -42 17 2 20 37 3 45 -11 25 -47 -7 -13 -17
-17 -36 -13 l-27 5 19 -26 c15 -20 21 -23 29 -13 6 7 18 15 28 19 10 4 17 17
17 32 0 14 5 25 11 25 6 0 8 -8 4 -20 -5 -15 0 -21 21 -26 24 -6 25 -8 10 -19
-15 -11 -14 -14 9 -29 14 -9 31 -14 37 -10 7 4 25 -8 43 -30 20 -24 44 -40 66
-45 37 -7 47 -33 15 -39 -11 -3 -16 0 -12 7 4 6 0 11 -9 11 -33 0 -7 -25 31
-30 21 -3 51 -14 65 -23 23 -16 28 -16 39 -2 14 17 35 21 25 4 -4 -5 5 -21 19
-34 31 -29 35 -55 6 -48 -13 4 -36 -8 -70 -37 -39 -32 -63 -44 -110 -53 -46
-9 -60 -16 -60 -29 0 -11 -8 -18 -20 -18 -21 0 -27 -15 -10 -25 6 -4 67 8 136
25 423 106 731 283 1031 593 113 117 165 193 165 241 0 38 7 43 38 26 15 -8
21 -6 30 9 9 18 1 23 -95 60 -57 22 -135 47 -171 56 -125 29 -217 97 -303 223
-91 134 -153 306 -121 336 8 7 52 18 98 25 284 42 469 138 503 263 17 64 6
189 -25 281 -14 43 -63 155 -107 250 -162 343 -166 355 -159 572 7 238 3 528
-10 625 -7 54 -23 112 -44 160 -18 41 -58 154 -89 250 -31 96 -70 198 -86 226
-35 61 -168 204 -225 243 -23 16 -63 36 -89 45 -26 9 -82 36 -125 60 -78 44
-124 65 -287 132 -222 91 -408 137 -464 115 -14 -5 -59 -13 -98 -16 -40 -4
-73 -11 -73 -17 0 -6 -13 -7 -30 -3 -17 4 -36 2 -43 -3 -16 -12 -179 -23 -171
-11 3 5 -4 9 -15 9 -14 0 -21 -6 -21 -20 0 -24 -13 -26 -30 -5 -8 10 -9 19 -3
28 7 8 5 20 -6 38 -13 21 -20 25 -39 18z m748 -204 c13 -14 21 -25 18 -25 -2
0 -15 11 -28 25 -13 14 -21 25 -18 25 2 0 15 -11 28 -25z m-513 -198 c18 -10
35 -28 39 -41 6 -27 -15 -75 -43 -97 -17 -13 -17 -13 -1 7 10 11 20 34 24 51
9 47 -29 72 -104 68 -31 -1 -74 -3 -95 -4 -42 -1 -47 -21 -8 -31 12 -3 21 -9
19 -15 -1 -5 -8 -9 -15 -7 -7 2 -13 -6 -13 -18 0 -11 -4 -20 -10 -20 -5 0 -10
7 -10 15 0 20 -44 20 -63 0 -11 -10 -17 -11 -19 -3 -5 14 -38 3 -38 -12 0 -14
26 -24 43 -16 6 3 23 14 37 23 21 16 23 16 18 1 -6 -14 4 -16 82 -20 81 -3
111 -10 99 -23 -3 -2 -45 -8 -95 -11 -49 -4 -97 -11 -106 -16 -12 -5 -18 -5
-18 2 0 12 -40 13 -58 1 -19 -12 34 -21 120 -21 52 0 70 -4 74 -15 5 -11 23
-15 73 -16 36 0 84 -4 106 -9 30 -7 16 -8 -55 -5 -167 8 -302 7 -405 -3 -110
-10 -202 -42 -335 -114 l-75 -41 30 33 c20 22 26 34 18 37 -17 6 -16 30 1 36
8 3 16 29 20 66 4 36 14 67 24 78 26 25 190 100 261 118 173 45 415 56 478 22z
m-17 -58 c0 -5 5 -7 10 -4 6 3 10 -4 10 -16 0 -21 -1 -21 -18 -6 -10 10 -24
17 -30 17 -7 0 -12 5 -12 10 0 6 9 10 20 10 11 0 20 -5 20 -11z m-839 -58
c-22 -42 -41 -61 -41 -40 0 20 53 105 57 92 2 -6 -5 -30 -16 -52z m954 9 c-3
-5 -11 -10 -16 -10 -6 0 -7 5 -4 10 3 6 11 10 16 10 6 0 7 -4 4 -10z m-128
-32 c-3 -8 -6 -5 -6 6 -1 11 2 17 5 13 3 -3 4 -12 1 -19z m273 8 c0 -16 -18
-31 -27 -22 -8 8 5 36 17 36 5 0 10 -6 10 -14z m285 -57 c-10 -86 -26 -131
-19 -54 6 72 14 115 21 115 3 0 2 -27 -2 -61z m-154 8 c-8 -8 -11 -3 -11 19 1
25 2 27 11 11 8 -14 8 -22 0 -30z m-1231 -19 c0 -7 -5 -20 -10 -28 -8 -12 -10
-9 -10 13 0 15 5 27 10 27 6 0 10 -6 10 -12z m-90 -131 c-20 -45 -21 -54 -9
-90 l13 -40 -60 -57 c-46 -43 -61 -64 -62 -86 0 -16 -16 -76 -35 -134 -19 -58
-39 -121 -45 -140 l-10 -35 -1 32 c-3 93 87 439 145 561 39 81 76 110 82 65 2
-14 -6 -48 -18 -76z m570 41 c58 -20 91 -28 122 -28 42 0 68 -8 68 -21 0 -5
-7 -9 -16 -9 -14 0 -14 -3 -3 -16 11 -13 9 -15 -16 -12 -23 2 -30 -2 -33 -17
-3 -16 -1 -18 9 -7 7 6 16 12 20 12 17 0 39 -33 39 -57 0 -21 2 -24 15 -13 12
10 15 10 15 -4 0 -9 6 -16 14 -16 21 0 30 -19 16 -35 -15 -18 19 -29 61 -20
28 6 30 5 25 -13 -4 -11 -2 -23 4 -27 7 -4 14 2 17 14 7 27 23 27 23 1 0 -11
5 -20 10 -20 6 0 10 5 10 10 0 6 7 10 15 10 8 0 12 -6 9 -13 -3 -8 6 -18 20
-25 31 -14 41 -48 27 -86 -14 -34 -14 -46 -1 -46 6 0 10 8 11 18 0 11 2 12 6
4 3 -7 -1 -19 -8 -28 -11 -13 -17 -11 -46 18 -18 17 -33 27 -33 21 0 -7 4 -14
9 -17 12 -8 22 -97 15 -135 -5 -23 -10 -29 -17 -22 -6 6 -25 11 -43 11 -24 0
-33 -5 -37 -21 -5 -17 -9 -19 -26 -9 -36 19 -23 1 19 -25 22 -14 40 -30 40
-35 0 -6 -10 -4 -23 5 -36 23 -40 6 -7 -32 17 -18 30 -38 30 -44 0 -5 9 -19
20 -31 34 -36 27 -81 -24 -152 -15 -21 -16 -29 -6 -41 18 -21 6 -30 -38 -26
-26 1 -46 -4 -64 -18 -33 -26 -51 -27 -43 -2 5 18 3 18 -19 8 -25 -12 -37 -47
-16 -47 7 0 7 -6 0 -20 -6 -11 -17 -20 -25 -20 -8 0 -15 -4 -15 -8 0 -5 -11
-15 -25 -22 -14 -7 -25 -22 -25 -32 0 -10 -4 -18 -10 -18 -5 0 -10 -15 -10
-34 0 -22 -6 -36 -16 -40 -10 -4 -14 -12 -10 -23 4 -11 -9 -37 -40 -76 -25
-33 -47 -66 -48 -73 -1 -7 -9 -21 -18 -31 -40 -46 -51 -121 -24 -158 8 -11 11
-25 9 -33 -4 -9 1 -11 19 -7 22 6 27 0 55 -58 l31 -63 -28 -58 c-15 -32 -34
-62 -41 -67 -8 -5 -42 -9 -75 -9 -47 0 -68 5 -87 20 -37 29 -91 50 -129 50
l-32 0 29 -30 c15 -16 29 -40 31 -52 1 -13 3 -24 3 -25 2 -7 1 -13 -2 -10 -2
1 -12 -4 -21 -12 -14 -12 -19 -12 -25 -2 -6 8 -12 3 -20 -17 -8 -18 -23 -33
-37 -36 -14 -4 -24 -14 -24 -24 0 -11 -8 -6 -22 17 -20 31 -22 32 -29 13 -9
-23 -29 -39 -29 -22 0 6 -16 -2 -37 -17 l-36 -28 5 48 c4 36 2 47 -8 47 -8 0
-22 9 -31 20 -22 25 -35 25 -58 0 -10 -11 -34 -23 -54 -26 -20 -4 -41 -11 -48
-16 -7 -6 -15 -3 -22 9 -10 17 -10 17 -11 1 0 -10 -7 -18 -15 -18 -56 0 -42
228 24 385 5 11 14 44 21 74 14 59 48 101 84 102 20 0 20 1 -2 11 -26 13 -27
53 -2 53 8 0 30 14 47 31 40 38 70 44 182 31 107 -12 111 -13 111 -32 0 -9 -4
-14 -9 -10 -12 7 -34 -32 -26 -45 3 -5 1 -11 -5 -15 -21 -13 -8 -25 28 -25 42
0 128 24 148 41 11 9 14 8 14 -4 0 -18 -16 -31 -55 -44 -27 -10 -28 -11 -10
-19 11 -4 23 -12 27 -18 4 -7 21 5 42 29 19 22 47 53 61 69 32 35 27 43 -16
21 -28 -15 -31 -15 -26 -1 8 20 -8 29 -31 17 -14 -8 -18 -6 -18 11 0 18 6 19
64 16 53 -2 66 0 78 16 8 11 10 24 5 30 -4 6 -11 23 -15 38 -3 15 -17 44 -31
64 -14 20 -25 45 -25 55 0 24 -20 35 -31 18 -7 -11 -9 -9 -9 8 0 12 5 23 11
25 6 2 8 14 4 28 -12 48 -151 120 -231 120 -12 0 -27 6 -33 14 -7 8 -35 17
-62 21 -44 6 -52 11 -61 36 -9 28 -28 40 -28 19 0 -5 -13 -10 -29 -10 -17 0
-33 -4 -36 -10 -3 -5 -11 -10 -17 -10 -6 0 -1 11 12 26 19 19 21 27 11 33 -19
12 -10 57 12 53 20 -3 23 13 5 22 -10 5 -10 7 0 12 14 7 16 34 2 34 -17 0 -11
51 11 81 11 16 27 29 35 29 8 0 14 5 14 10 0 6 -4 10 -10 10 -5 0 -10 5 -10
10 0 6 9 10 19 10 11 0 23 -4 26 -10 10 -17 25 -11 25 10 0 11 -5 20 -12 20
-6 0 -2 10 10 23 26 27 28 37 7 37 -22 0 -18 34 8 67 12 15 27 37 33 48 7 12
24 21 43 23 34 4 43 22 10 22 -12 0 -19 5 -16 13 2 6 15 11 29 9 18 -2 27 3
31 17 3 11 19 29 37 39 19 12 27 23 21 26 -6 4 -11 12 -11 18 0 6 8 4 18 -5
24 -22 33 -22 25 -1 -5 14 -2 16 20 10 22 -5 25 -3 20 10 -4 12 -1 15 12 13
10 -2 30 7 45 20 22 21 25 28 16 48 -15 31 -25 29 -23 -4 1 -19 -3 -28 -16
-31 -22 -4 -35 27 -16 39 11 7 11 11 1 21 -10 10 -14 10 -21 -1 -5 -7 -14 -10
-20 -7 -21 13 -11 26 20 26 17 0 39 5 50 10 13 7 19 7 19 0 0 -5 7 -10 16 -10
8 0 12 5 9 10 -3 6 4 11 17 11 67 4 78 5 84 12 7 7 48 4 74 -5z m-524 -63 c-6
-17 -26 -20 -26 -5 0 16 24 40 28 29 2 -5 1 -16 -2 -24z m1411 3 c-3 -8 -6 -5
-6 6 -1 11 2 17 5 13 3 -3 4 -12 1 -19z m-1176 -28 c13 -10 19 -19 12 -20 -6
0 -15 5 -18 10 -3 6 -15 10 -26 10 -10 0 -19 5 -19 10 0 16 26 11 51 -10z
m-271 -10 c0 -5 -4 -10 -10 -10 -5 0 -10 5 -10 10 0 6 5 10 10 10 6 0 10 -4
10 -10z m197 4 c-3 -3 -12 -4 -19 -1 -8 3 -5 6 6 6 11 1 17 -2 13 -5z m-165
-46 c-7 -7 -12 -8 -12 -2 0 14 12 26 19 19 2 -3 -1 -11 -7 -17z m918 -62 c0
-9 -41 8 -52 22 -11 13 -8 12 20 -2 17 -9 32 -18 32 -20z m-810 -6 c0 -5 -4
-10 -10 -10 -5 0 -10 5 -10 10 0 6 5 10 10 10 6 0 10 -4 10 -10z m730 -16 c0
-14 -21 -19 -33 -7 -9 9 13 34 24 27 5 -3 9 -12 9 -20z m85 -4 c3 -5 -1 -10
-9 -10 -8 0 -18 5 -21 10 -3 6 1 10 9 10 8 0 18 -4 21 -10z m-1044 -311 c-9
-23 -10 -23 -10 -2 -1 12 2 30 6 40 6 15 8 15 11 2 1 -8 -2 -26 -7 -40z m-106
-298 c-12 -11 -19 14 -22 72 l-3 62 15 -64 c8 -36 12 -67 10 -70z m1159 105
c3 -14 15 -28 26 -31 11 -3 20 -11 20 -16 0 -6 -4 -7 -10 -4 -6 3 -10 -5 -10
-19 0 -14 -4 -28 -10 -31 -6 -4 -10 6 -10 22 0 16 -9 45 -20 66 -16 29 -17 37
-6 37 8 0 17 -11 20 -24z m36 -136 c0 -5 -4 -10 -10 -10 -5 0 -10 5 -10 10 0
6 5 10 10 10 6 0 10 -4 10 -10z m80 -9 c-11 -22 -29 -35 -36 -28 -5 4 35 47
43 47 2 0 -1 -9 -7 -19z m-70 -85 c0 -16 -18 -31 -27 -22 -8 8 5 36 17 36 5 0
10 -6 10 -14z m-1021 -37 c68 -12 157 -51 201 -88 23 -19 24 -20 5 -21 -132
-6 -237 -20 -278 -38 -40 -18 -47 -19 -47 -5 0 8 -14 28 -31 44 -30 28 -31 30
-15 55 10 13 28 30 42 36 13 6 24 15 24 20 0 11 21 10 99 -3z m1257 -47 c7 -4
8 -15 4 -28 -9 -24 -59 -34 -163 -34 -53 0 -58 2 -46 16 25 31 83 53 139 53
30 1 60 -3 66 -7z m-951 -42 c-3 -5 -10 -10 -16 -10 -5 0 -9 5 -9 10 0 6 7 10
16 10 8 0 12 -4 9 -10z m901 -51 c11 -19 -13 -31 -78 -40 -35 -4 -76 -11 -91
-15 -25 -6 -28 -4 -25 12 6 36 175 73 194 43z m-1046 -9 c0 -16 -33 -29 -103
-40 -36 -5 -73 -13 -81 -16 -24 -9 -20 23 3 36 47 25 181 40 181 20z m-302
-45 c14 -30 15 -45 4 -45 -4 0 -12 16 -18 35 -13 40 -3 47 14 10z m217 -60 c0
-24 -4 -29 -20 -27 -11 2 -27 10 -35 18 -13 14 -13 17 5 30 30 22 50 13 50
-21z m1059 19 c11 -29 6 -34 -38 -34 -51 0 -64 11 -40 34 20 21 70 21 78 0z
m-704 -25 c0 -5 -7 -9 -15 -9 -15 0 -20 12 -9 23 8 8 24 -1 24 -14z m778 -52
c22 -10 27 -19 26 -45 -2 -23 3 -32 15 -33 9 -1 -2 -5 -24 -9 -54 -11 -140 4
-172 30 -14 11 -37 20 -50 20 -20 0 -23 4 -18 21 6 19 5 20 -14 9 -22 -11 -41
-6 -41 12 0 5 6 8 13 5 8 -3 20 -1 28 5 19 13 203 2 237 -15z m160 -179 c6 -6
12 -18 12 -28 0 -23 26 -44 41 -34 9 5 10 2 4 -12 -4 -10 -9 -30 -11 -44 -2
-14 -1 -17 2 -7 9 28 24 20 24 -14 0 -18 4 -28 10 -24 6 4 10 -5 8 -22 -1 -27
15 -89 33 -125 5 -10 9 -27 9 -37 0 -11 5 -23 11 -26 7 -5 3 -15 -11 -30 -21
-22 -21 -24 -3 -33 14 -8 18 -23 18 -71 1 -34 0 -61 -2 -61 -1 0 -17 20 -36
44 -20 27 -38 41 -43 36 -5 -5 -31 5 -64 26 -30 19 -60 34 -66 34 -7 0 -14 4
-16 9 -1 5 -14 11 -28 13 -27 3 -31 -14 -15 -57 6 -15 2 -14 -16 7 -13 15 -33
28 -44 30 -10 2 -26 16 -35 32 -24 47 -43 66 -65 66 -16 0 -24 10 -33 44 -6
24 -32 74 -57 111 -55 80 -56 107 -5 115 20 4 41 9 47 13 7 4 29 0 50 -9 70
-30 90 -33 112 -17 26 17 28 43 4 43 -10 0 -23 12 -30 26 l-12 26 97 -7 c53
-4 103 -12 110 -17z m62 -7 c0 -5 -7 -14 -15 -21 -12 -10 -15 -10 -15 2 0 8 3
18 7 21 9 10 23 9 23 -2z m-849 -492 c10 -10 24 -19 31 -19 9 0 9 -3 0 -12 -8
-8 -15 -8 -24 -1 -7 6 -32 14 -55 18 -24 4 -46 12 -49 17 -4 6 -2 8 3 5 6 -4
16 0 23 8 15 18 43 12 71 -16z m-666 -49 c-5 -22 -3 -32 9 -36 18 -7 12 -24
-10 -24 -8 0 -14 9 -14 19 0 11 -7 21 -15 23 -14 3 -14 5 0 26 23 32 38 28 30
-8z m-78 -82 c-3 -8 -6 -5 -6 6 -1 11 2 17 5 13 3 -3 4 -12 1 -19z m578 6 c10
-15 18 -15 65 -4 81 19 217 2 265 -34 24 -18 11 -37 -26 -38 -63 -1 -80 -9
-77 -35 4 -36 63 -56 108 -36 48 20 77 16 96 -12 l16 -25 30 25 c40 33 54 31
77 -12 15 -29 13 -60 -7 -111 l-18 -42 -46 29 c-50 32 -70 23 -42 -17 13 -19
12 -22 -8 -36 -12 -9 -31 -16 -41 -16 -9 0 -20 -6 -23 -13 -3 -8 -16 -12 -33
-9 -17 2 -34 -3 -44 -13 -23 -22 -21 -30 9 -44 24 -10 25 -13 11 -24 -9 -7
-17 -30 -19 -52 -2 -33 -8 -42 -33 -54 -39 -19 -220 -26 -308 -13 -72 11 -97
8 -97 -13 0 -7 -9 -24 -21 -39 l-20 -26 30 0 c27 0 31 -4 31 -27 0 -21 3 -24
12 -15 9 9 15 5 24 -18 14 -32 39 -39 74 -20 13 7 21 6 30 -5 7 -9 21 -13 31
-10 12 4 19 -1 24 -14 3 -10 12 -25 21 -32 12 -10 13 -9 8 5 -4 9 -1 16 6 16
10 0 10 3 0 15 -10 12 -10 15 4 15 11 0 16 -9 16 -30 0 -33 13 -39 30 -12 9
13 10 10 5 -15 -5 -24 -3 -33 7 -33 24 0 39 22 27 37 -9 10 -8 13 5 13 10 0
16 -9 16 -24 0 -14 5 -28 10 -31 13 -8 13 -48 -2 -80 -15 -33 -46 -40 -93 -21
-47 20 -55 20 -55 1 0 -9 14 -22 30 -29 30 -12 30 -12 10 -31 -11 -10 -20 -13
-20 -7 0 5 -9 8 -20 5 -15 -4 -20 0 -20 17 0 16 -4 20 -19 15 -16 -5 -20 1
-26 45 -7 50 -24 69 -26 28 0 -22 -1 -22 -10 2 -8 20 -12 22 -19 10 -8 -13
-10 -12 -10 2 0 9 5 20 10 23 17 10 11 25 -10 25 -11 0 -29 8 -39 18 -10 9
-34 28 -53 41 -47 34 -74 91 -43 91 13 0 13 3 3 19 -10 16 -9 23 5 39 20 22
22 51 6 86 -13 28 -39 43 -39 22 0 -8 4 -16 9 -18 15 -5 18 -60 4 -65 -7 -3
-17 8 -23 24 -5 15 -15 36 -20 45 -14 25 -12 38 5 32 21 -8 19 16 -4 40 -19
21 -41 103 -41 151 0 20 5 25 26 25 19 0 25 -4 20 -15 -7 -19 19 -20 54 -2 22
11 25 19 26 74 2 73 7 83 45 83 31 0 37 11 15 29 -10 8 -26 9 -57 2 -55 -13
-90 -13 -109 -1 -21 13 23 57 71 70 21 6 41 15 44 20 3 6 16 10 28 10 12 0 38
9 57 19 44 25 50 25 65 5z m-546 -48 c20 -24 9 -68 -18 -78 -22 -8 -23 -6 -18
20 3 16 1 34 -5 40 -12 12 -2 32 16 32 8 0 19 -6 25 -14z m28 -148 c-3 -8 -6
-5 -6 6 -1 11 2 17 5 13 3 -3 4 -12 1 -19z m793 -646 c0 -13 -12 -22 -22 -16
-10 6 -1 24 13 24 5 0 9 -4 9 -8z m-363 -94 c-3 -8 -6 -5 -6 6 -1 11 2 17 5
13 3 -3 4 -12 1 -19z m1103 -518 c0 -13 -20 -13 -40 0 -12 8 -9 10 13 10 15 0
27 -4 27 -10z m-740 -29 c0 -5 -7 -14 -15 -21 -12 -10 -15 -10 -15 2 0 8 3 18
7 21 9 10 23 9 23 -2z m945 -111 c3 -5 2 -10 -4 -10 -5 0 -13 5 -16 10 -3 6
-2 10 4 10 5 0 13 -4 16 -10z m265 -305 c0 -8 -4 -15 -10 -15 -5 0 -10 7 -10
15 0 8 5 15 10 15 6 0 10 -7 10 -15z"/>
<path d="M1570 4805 c0 -18 1 -18 36 0 l29 15 -32 0 c-23 0 -33 -5 -33 -15z"/>
<path d="M1510 4754 c0 -8 5 -12 10 -9 6 3 10 10 10 16 0 5 -4 9 -10 9 -5 0
-10 -7 -10 -16z"/>
<path d="M1420 4740 c0 -13 5 -20 13 -17 6 2 12 10 12 17 0 7 -6 15 -12 18 -8
2 -13 -5 -13 -18z"/>
<path d="M1272 4698 c-17 -17 -15 -28 6 -28 19 0 42 18 42 32 0 12 -35 9 -48
-4z"/>
<path d="M1505 4670 c-4 -6 3 -10 14 -10 25 0 27 6 6 13 -8 4 -17 2 -20 -3z"/>
<path d="M1177 4653 c-12 -11 -8 -23 7 -23 8 0 16 7 20 15 5 15 -14 21 -27 8z"/>
<path d="M910 4590 c0 -5 5 -10 10 -10 6 0 10 5 10 10 0 6 -4 10 -10 10 -5 0
-10 -4 -10 -10z"/>
<path d="M880 4489 c0 -5 5 -7 10 -4 6 3 10 8 10 11 0 2 -4 4 -10 4 -5 0 -10
-5 -10 -11z"/>
<path d="M880 4420 c0 -16 4 -30 9 -30 12 0 24 37 16 50 -12 20 -25 10 -25
-20z"/>
<path d="M1906 4252 c-5 -8 -2 -20 8 -31 9 -10 16 -25 16 -34 0 -24 15 -21 29
7 16 29 8 46 -18 39 -13 -3 -20 1 -23 14 -3 14 -5 15 -12 5z"/>
<path d="M880 3960 c0 -5 5 -10 10 -10 6 0 10 5 10 10 0 6 -4 10 -10 10 -5 0
-10 -4 -10 -10z"/>
<path d="M876 3904 c-4 -10 -1 -14 6 -12 15 5 23 28 10 28 -5 0 -13 -7 -16
-16z"/>
<path d="M1170 3070 c8 -5 22 -10 30 -10 13 0 13 1 0 10 -8 5 -22 10 -30 10
-13 0 -13 -1 0 -10z"/>
<path d="M1185 2930 c-14 -15 -16 -23 -7 -32 15 -15 42 7 42 33 0 25 -12 24
-35 -1z"/>
<path d="M1955 3240 c3 -5 13 -10 21 -10 8 0 12 5 9 10 -3 6 -13 10 -21 10 -8
0 -12 -4 -9 -10z"/>
<path d="M2120 2686 c0 -17 14 -29 23 -20 8 8 -3 34 -14 34 -5 0 -9 -6 -9 -14z"/>
<path d="M2408 2683 c7 -3 16 -2 19 1 4 3 -2 6 -13 5 -11 0 -14 -3 -6 -6z"/>
<path d="M1645 2169 c-10 -15 3 -25 16 -12 7 7 7 13 1 17 -6 3 -14 1 -17 -5z"/>
<path d="M1700 2135 c7 -8 16 -15 21 -15 5 0 9 7 9 15 0 9 -9 15 -21 15 -18 0
-19 -2 -9 -15z"/>
<path d="M1198 2093 c7 -3 16 -2 19 1 4 3 -2 6 -13 5 -11 0 -14 -3 -6 -6z"/>
<path d="M1383 2023 c9 -2 23 -2 30 0 6 3 -1 5 -18 5 -16 0 -22 -2 -12 -5z"/>
<path d="M1348 1603 c6 -2 18 -2 25 0 6 3 1 5 -13 5 -14 0 -19 -2 -12 -5z"/>
<path d="M1541 1576 c-8 -9 -11 -19 -7 -23 9 -9 29 13 24 27 -2 8 -8 7 -17 -4z"/>
<path d="M1935 887 c-4 -10 -3 -23 3 -29 14 -14 21 3 12 27 -7 19 -8 19 -15 2z"/>
<path d="M1587 728 c15 -60 74 -169 113 -206 51 -50 180 -103 180 -74 0 4 -17
14 -37 21 -21 7 -53 24 -70 38 -37 27 -135 155 -160 208 -19 39 -34 47 -26 13z"/>
<path d="M2695 660 c-4 -6 5 -10 20 -10 15 0 24 4 20 10 -3 6 -12 10 -20 10
-8 0 -17 -4 -20 -10z"/>
<path d="M2098 453 c7 -3 16 -2 19 1 4 3 -2 6 -13 5 -11 0 -14 -3 -6 -6z"/>
<path d="M2510 431 c0 -5 -8 -12 -17 -15 -10 -2 -5 -4 11 -3 30 2 50 27 22 27
-9 0 -16 -4 -16 -9z"/>
</g>
</svg>
